<svg width="23" height="23" viewBox="0 0 23 23" fill="none" xmlns="http://www.w3.org/2000/svg">
<g clip-path="url(#clip0_59_3372)">
<g filter="url(#filter0_d_59_3372)">
<path d="M11.9116 7.96088H20.8169C21.3517 7.96088 21.7858 8.395 21.7858 8.92975V20.125H11.9116V7.96088Z" fill="url(#paint0_linear_59_3372)"/>
<path d="M11.9116 7.96088H20.8169C21.3517 7.96088 21.7858 8.395 21.7858 8.92975V20.125H11.9116V7.96088Z" fill="url(#paint1_linear_59_3372)"/>
<path d="M11.9116 7.96088H20.8169C21.3517 7.96088 21.7858 8.395 21.7858 8.92975V20.125H11.9116V7.96088Z" fill="url(#paint2_radial_59_3372)"/>
</g>
<path d="M11.3662 19.8346H21.7859V21.0457H21.5437L21.3015 21.2887H11.3662V19.8346Z" fill="url(#paint3_linear_59_3372)"/>
<path d="M11.3662 19.8346H21.7859V21.0457H21.5437L21.3015 21.2887H11.3662V19.8346Z" fill="url(#paint4_linear_59_3372)"/>
<path d="M11.8507 7.96088C11.7552 7.96078 11.6607 7.97951 11.5725 8.016C11.4843 8.05248 11.4041 8.106 11.3366 8.1735C11.2692 8.24099 11.2156 8.32114 11.1791 8.40934C11.1427 8.49755 11.1239 8.59208 11.124 8.68753V20.5613H11.6085C11.6085 20.2939 11.8255 20.0768 12.0929 20.0768H12.5781V7.96088H11.8507Z" fill="url(#paint5_linear_59_3372)"/>
<path d="M11.8507 7.96088C11.7552 7.96078 11.6607 7.97951 11.5725 8.016C11.4843 8.05248 11.4041 8.106 11.3366 8.1735C11.2692 8.24099 11.2156 8.32114 11.1791 8.40934C11.1427 8.49755 11.1239 8.59208 11.124 8.68753V20.5613H11.6085C11.6085 20.2939 11.8255 20.0768 12.0929 20.0768H12.5781V7.96088H11.8507Z" fill="url(#paint6_radial_59_3372)"/>
<g filter="url(#filter1_d_59_3372)">
<path d="M11.8507 19.5924C11.7552 19.5923 11.6607 19.611 11.5725 19.6475C11.4843 19.684 11.4041 19.7375 11.3366 19.805C11.2692 19.8725 11.2156 19.9527 11.1791 20.0409C11.1427 20.1291 11.1239 20.2236 11.124 20.3191V20.8035C11.124 21.2053 11.4496 21.5309 11.8507 21.5309H21.257C21.5732 21.5309 21.786 21.3684 21.786 21.0457H12.0929C11.9644 21.0457 11.8412 20.9947 11.7503 20.9038C11.6595 20.813 11.6085 20.6898 11.6085 20.5613C11.6085 20.4328 11.6595 20.3096 11.7503 20.2187C11.8412 20.1279 11.9644 20.0768 12.0929 20.0768H21.786V19.5924H11.8507Z" fill="url(#paint7_linear_59_3372)"/>
</g>
<path d="M7.50146 5.05713H15.7405C16.276 5.05713 16.7101 5.49125 16.7101 6.02672V16.6887H7.50146V5.05713Z" fill="url(#paint8_linear_59_3372)"/>
<path d="M7.50146 5.05713H15.7405C16.276 5.05713 16.7101 5.49125 16.7101 6.02672V16.6887H7.50146V5.05713Z" fill="url(#paint9_linear_59_3372)"/>
<path d="M7.50146 5.05713H15.7405C16.276 5.05713 16.7101 5.49125 16.7101 6.02672V16.6887H7.50146V5.05713Z" fill="url(#paint10_radial_59_3372)"/>
<path d="M6.28955 16.9309H16.7107V18.1427H16.4685L16.2256 18.3849H6.28955V16.9309Z" fill="url(#paint11_linear_59_3372)"/>
<path d="M6.28955 16.9309H16.7107V18.1427H16.4685L16.2256 18.3849H6.28955V16.9309Z" fill="url(#paint12_linear_59_3372)"/>
<path d="M6.77474 5.05713C6.37296 5.05713 6.04736 5.38272 6.04736 5.7845V17.6583H6.53252C6.53252 17.3902 6.74886 17.1731 7.01696 17.1731H7.50139V5.05713H6.77474Z" fill="url(#paint13_linear_59_3372)"/>
<path d="M6.77474 5.05713C6.37296 5.05713 6.04736 5.38272 6.04736 5.7845V17.6583H6.53252C6.53252 17.3902 6.74886 17.1731 7.01696 17.1731H7.50139V5.05713H6.77474Z" fill="url(#paint14_radial_59_3372)"/>
<path d="M6.77474 5.05713C6.37296 5.05713 6.04736 5.38272 6.04736 5.7845V17.6583H6.53252C6.53252 17.3902 6.74886 17.1731 7.01696 17.1731H7.50139V5.05713H6.77474Z" fill="url(#paint15_radial_59_3372)"/>
<g filter="url(#filter2_d_59_3372)">
<path d="M6.77474 16.6894C6.67929 16.6892 6.58473 16.7078 6.49649 16.7442C6.40825 16.7806 6.32806 16.8341 6.26049 16.9015C6.19293 16.9689 6.13933 17.049 6.10276 17.1372C6.06619 17.2253 6.04736 17.3199 6.04736 17.4153V17.9005C6.04736 18.3015 6.37296 18.6271 6.77474 18.6271H16.1803C16.4966 18.6271 16.71 18.4654 16.71 18.1427H7.01696C6.88838 18.1427 6.76507 18.0916 6.67415 18.0007C6.58324 17.9098 6.53216 17.7865 6.53216 17.6579C6.53216 17.5293 6.58324 17.406 6.67415 17.3151C6.76507 17.2242 6.88838 17.1731 7.01696 17.1731H16.71V16.6887L6.77474 16.6894Z" fill="url(#paint16_linear_59_3372)"/>
</g>
<g filter="url(#filter3_d_59_3372)">
<path d="M2.35889 2.875H11.262C11.7968 2.875 12.2309 3.30913 12.2309 3.84388V14.5029H2.35889V2.875Z" fill="url(#paint17_linear_59_3372)"/>
<path d="M2.35889 2.875H11.262C11.7968 2.875 12.2309 3.30913 12.2309 3.84388V14.5029H2.35889V2.875Z" fill="url(#paint18_linear_59_3372)"/>
</g>
<path d="M1.8142 14.7459H12.231V15.9562H11.9888L11.7466 16.1985H1.81348V14.7451L1.8142 14.7459Z" fill="url(#paint19_linear_59_3372)"/>
<path d="M1.8142 14.7459H12.231V15.9562H11.9888L11.7466 16.1985H1.81348V14.7451L1.8142 14.7459Z" fill="url(#paint20_linear_59_3372)"/>
<path d="M2.29843 2.875C2.20298 2.87491 2.10845 2.89364 2.02024 2.93012C1.93204 2.96661 1.85189 3.02013 1.7844 3.08762C1.7169 3.15512 1.66338 3.23526 1.6269 3.32347C1.59041 3.41167 1.57168 3.5062 1.57178 3.60166V15.4725H2.05622C2.05622 15.2044 2.27328 14.9881 2.54065 14.9881H3.02509V2.875H2.29843Z" fill="url(#paint21_linear_59_3372)"/>
<g filter="url(#filter4_d_59_3372)">
<path d="M2.29843 14.5037C2.20304 14.5036 2.10857 14.5223 2.02041 14.5587C1.93225 14.5952 1.85214 14.6486 1.78465 14.716C1.71717 14.7834 1.66363 14.8635 1.62711 14.9516C1.59058 15.0398 1.57178 15.1342 1.57178 15.2296V15.7148C1.57168 15.8101 1.59039 15.9046 1.62683 15.9928C1.66327 16.0809 1.71673 16.1611 1.78415 16.2285C1.85156 16.296 1.93162 16.3496 2.01974 16.3861C2.10787 16.4226 2.20232 16.4414 2.29772 16.4414H11.7018C12.0181 16.4414 12.2308 16.279 12.2308 15.957H2.54065C2.41217 15.957 2.28895 15.9059 2.1981 15.8151C2.10725 15.7242 2.05622 15.601 2.05622 15.4725C2.05622 15.3441 2.10725 15.2208 2.1981 15.13C2.28895 15.0391 2.41217 14.9881 2.54065 14.9881H12.2308V14.5037H2.29843Z" fill="url(#paint22_linear_59_3372)"/>
</g>
</g>
<defs>
<filter id="filter0_d_59_3372" x="10.6772" y="6.97338" width="12.3428" height="14.6329" filterUnits="userSpaceOnUse" color-interpolation-filters="sRGB">
<feFlood flood-opacity="0" result="BackgroundImageFix"/>
<feColorMatrix in="SourceAlpha" type="matrix" values="0 0 0 0 0 0 0 0 0 0 0 0 0 0 0 0 0 0 127 0" result="hardAlpha"/>
<feOffset dy="0.246875"/>
<feGaussianBlur stdDeviation="0.617188"/>
<feComposite in2="hardAlpha" operator="out"/>
<feColorMatrix type="matrix" values="0 0 0 0 0.32549 0 0 0 0 0.807843 0 0 0 0 0.933333 0 0 0 1 0"/>
<feBlend mode="normal" in2="BackgroundImageFix" result="effect1_dropShadow_59_3372"/>
<feBlend mode="normal" in="SourceGraphic" in2="effect1_dropShadow_59_3372" result="shape"/>
</filter>
<filter id="filter1_d_59_3372" x="10.3834" y="19.0987" width="12.1434" height="3.41973" filterUnits="userSpaceOnUse" color-interpolation-filters="sRGB">
<feFlood flood-opacity="0" result="BackgroundImageFix"/>
<feColorMatrix in="SourceAlpha" type="matrix" values="0 0 0 0 0 0 0 0 0 0 0 0 0 0 0 0 0 0 127 0" result="hardAlpha"/>
<feOffset dy="0.246875"/>
<feGaussianBlur stdDeviation="0.370313"/>
<feComposite in2="hardAlpha" operator="out"/>
<feColorMatrix type="matrix" values="0 0 0 0 0.168627 0 0 0 0 0.388235 0 0 0 0 0.74902 0 0 0 1 0"/>
<feBlend mode="normal" in2="BackgroundImageFix" result="effect1_dropShadow_59_3372"/>
<feBlend mode="normal" in="SourceGraphic" in2="effect1_dropShadow_59_3372" result="shape"/>
</filter>
<filter id="filter2_d_59_3372" x="5.30674" y="16.1949" width="12.1438" height="3.41973" filterUnits="userSpaceOnUse" color-interpolation-filters="sRGB">
<feFlood flood-opacity="0" result="BackgroundImageFix"/>
<feColorMatrix in="SourceAlpha" type="matrix" values="0 0 0 0 0 0 0 0 0 0 0 0 0 0 0 0 0 0 127 0" result="hardAlpha"/>
<feOffset dy="0.246875"/>
<feGaussianBlur stdDeviation="0.370313"/>
<feComposite in2="hardAlpha" operator="out"/>
<feColorMatrix type="matrix" values="0 0 0 0 0.694118 0 0 0 0 0.192157 0 0 0 0 0.360784 0 0 0 1 0"/>
<feBlend mode="normal" in2="BackgroundImageFix" result="effect1_dropShadow_59_3372"/>
<feBlend mode="normal" in="SourceGraphic" in2="effect1_dropShadow_59_3372" result="shape"/>
</filter>
<filter id="filter3_d_59_3372" x="1.12451" y="1.8875" width="12.3408" height="14.0967" filterUnits="userSpaceOnUse" color-interpolation-filters="sRGB">
<feFlood flood-opacity="0" result="BackgroundImageFix"/>
<feColorMatrix in="SourceAlpha" type="matrix" values="0 0 0 0 0 0 0 0 0 0 0 0 0 0 0 0 0 0 127 0" result="hardAlpha"/>
<feOffset dy="0.246875"/>
<feGaussianBlur stdDeviation="0.617188"/>
<feComposite in2="hardAlpha" operator="out"/>
<feColorMatrix type="matrix" values="0 0 0 0 0.623529 0 0 0 0 0.858824 0 0 0 0 0.290196 0 0 0 1 0"/>
<feBlend mode="normal" in2="BackgroundImageFix" result="effect1_dropShadow_59_3372"/>
<feBlend mode="normal" in="SourceGraphic" in2="effect1_dropShadow_59_3372" result="shape"/>
</filter>
<filter id="filter4_d_59_3372" x="0.831152" y="14.0099" width="12.1404" height="3.41899" filterUnits="userSpaceOnUse" color-interpolation-filters="sRGB">
<feFlood flood-opacity="0" result="BackgroundImageFix"/>
<feColorMatrix in="SourceAlpha" type="matrix" values="0 0 0 0 0 0 0 0 0 0 0 0 0 0 0 0 0 0 127 0" result="hardAlpha"/>
<feOffset dy="0.246875"/>
<feGaussianBlur stdDeviation="0.370313"/>
<feComposite in2="hardAlpha" operator="out"/>
<feColorMatrix type="matrix" values="0 0 0 0 0.113725 0 0 0 0 0.435294 0 0 0 0 0.439216 0 0 0 1 0"/>
<feBlend mode="normal" in2="BackgroundImageFix" result="effect1_dropShadow_59_3372"/>
<feBlend mode="normal" in="SourceGraphic" in2="effect1_dropShadow_59_3372" result="shape"/>
</filter>
<linearGradient id="paint0_linear_59_3372" x1="17.1815" y1="7.96088" x2="17.1815" y2="19.5924" gradientUnits="userSpaceOnUse">
<stop stop-color="#56D1F3"/>
<stop offset="1" stop-color="#39ADF1"/>
</linearGradient>
<linearGradient id="paint1_linear_59_3372" x1="21.8613" y1="9.67222" x2="20.9075" y2="9.80806" gradientUnits="userSpaceOnUse">
<stop offset="0.014" stop-color="#7FECFF"/>
<stop offset="1" stop-color="#60DEFF" stop-opacity="0"/>
</linearGradient>
<radialGradient id="paint2_radial_59_3372" cx="0" cy="0" r="1" gradientUnits="userSpaceOnUse" gradientTransform="translate(12.5161 19.5924) scale(4.33227 3.67791)">
<stop stop-color="#2E7CD5"/>
<stop offset="1" stop-color="#2E7CD5" stop-opacity="0"/>
</radialGradient>
<linearGradient id="paint3_linear_59_3372" x1="11.9585" y1="20.7625" x2="21.6982" y2="20.7625" gradientUnits="userSpaceOnUse">
<stop stop-color="#D5BCEB"/>
<stop offset="1" stop-color="#E3D3F2"/>
</linearGradient>
<linearGradient id="paint4_linear_59_3372" x1="16.5764" y1="19.9496" x2="16.5764" y2="20.6375" gradientUnits="userSpaceOnUse">
<stop stop-color="#9F84AE"/>
<stop offset="1" stop-color="#C5B1D6" stop-opacity="0"/>
</linearGradient>
<linearGradient id="paint5_linear_59_3372" x1="11.2232" y1="15.1031" x2="12.366" y2="15.1088" gradientUnits="userSpaceOnUse">
<stop stop-color="#44A3D2"/>
<stop offset="1" stop-color="#3C8FCC"/>
</linearGradient>
<radialGradient id="paint6_radial_59_3372" cx="0" cy="0" r="1" gradientUnits="userSpaceOnUse" gradientTransform="translate(12.5781 18.418) rotate(90) scale(3.03223 1.76838)">
<stop stop-color="#3163AE"/>
<stop offset="1" stop-color="#3163AE" stop-opacity="0"/>
</radialGradient>
<linearGradient id="paint7_linear_59_3372" x1="11.8176" y1="21.0285" x2="21.786" y2="21.0127" gradientUnits="userSpaceOnUse">
<stop stop-color="#3769C5"/>
<stop offset="1" stop-color="#3666C3"/>
</linearGradient>
<linearGradient id="paint8_linear_59_3372" x1="12.1058" y1="5.05713" x2="12.1058" y2="16.6887" gradientUnits="userSpaceOnUse">
<stop stop-color="#E13074"/>
<stop offset="1" stop-color="#E0334C"/>
</linearGradient>
<linearGradient id="paint9_linear_59_3372" x1="17.5287" y1="6.6966" x2="16.2156" y2="6.74332" gradientUnits="userSpaceOnUse">
<stop offset="0.409" stop-color="#F76594"/>
<stop offset="1" stop-color="#FA6295" stop-opacity="0"/>
</linearGradient>
<radialGradient id="paint10_radial_59_3372" cx="0" cy="0" r="1" gradientUnits="userSpaceOnUse" gradientTransform="translate(7.91187 16.3968) scale(4.85156 3.92596)">
<stop stop-color="#B21940"/>
<stop offset="1" stop-color="#B21940" stop-opacity="0"/>
</radialGradient>
<linearGradient id="paint11_linear_59_3372" x1="6.8818" y1="17.8595" x2="16.6223" y2="17.8595" gradientUnits="userSpaceOnUse">
<stop stop-color="#D5BCEB"/>
<stop offset="1" stop-color="#E3D3F2"/>
</linearGradient>
<linearGradient id="paint12_linear_59_3372" x1="11.4998" y1="17.0466" x2="11.4998" y2="17.7344" gradientUnits="userSpaceOnUse">
<stop stop-color="#9F84AE"/>
<stop offset="1" stop-color="#C5B1D6" stop-opacity="0"/>
</linearGradient>
<linearGradient id="paint13_linear_59_3372" x1="6.14727" y1="12.2001" x2="7.50139" y2="12.2001" gradientUnits="userSpaceOnUse">
<stop stop-color="#9A3E4F"/>
<stop offset="1" stop-color="#AA2C4D"/>
</linearGradient>
<radialGradient id="paint14_radial_59_3372" cx="0" cy="0" r="1" gradientUnits="userSpaceOnUse" gradientTransform="translate(6.24071 17.015) rotate(-90) scale(3.22065 0.567496)">
<stop stop-color="#9B3F51"/>
<stop offset="1" stop-color="#9B3F51" stop-opacity="0"/>
</radialGradient>
<radialGradient id="paint15_radial_59_3372" cx="0" cy="0" r="1" gradientUnits="userSpaceOnUse" gradientTransform="translate(7.49924 16.0605) rotate(90) scale(2.3584 1.34163)">
<stop offset="0.267" stop-color="#8F163A"/>
<stop offset="1" stop-color="#8F163A" stop-opacity="0"/>
</radialGradient>
<linearGradient id="paint16_linear_59_3372" x1="6.74096" y1="18.1254" x2="16.71" y2="18.1096" gradientUnits="userSpaceOnUse">
<stop stop-color="#AB1F5C"/>
<stop offset="1" stop-color="#A51E5A"/>
</linearGradient>
<linearGradient id="paint17_linear_59_3372" x1="7.62804" y1="2.875" x2="7.62804" y2="14.5037" gradientUnits="userSpaceOnUse">
<stop stop-color="#A6E051"/>
<stop offset="1" stop-color="#74D891"/>
</linearGradient>
<linearGradient id="paint18_linear_59_3372" x1="12.3064" y1="4.58563" x2="11.3526" y2="4.72219" gradientUnits="userSpaceOnUse">
<stop offset="0.014" stop-color="#C0FA7C"/>
<stop offset="1" stop-color="#B0ED5B" stop-opacity="0"/>
</linearGradient>
<linearGradient id="paint19_linear_59_3372" x1="2.40573" y1="15.6738" x2="12.1434" y2="15.6738" gradientUnits="userSpaceOnUse">
<stop stop-color="#D5BCEB"/>
<stop offset="1" stop-color="#E3D3F2"/>
</linearGradient>
<linearGradient id="paint20_linear_59_3372" x1="7.02226" y1="14.8609" x2="7.02226" y2="15.5487" gradientUnits="userSpaceOnUse">
<stop stop-color="#9F84AE"/>
<stop offset="1" stop-color="#C5B1D6" stop-opacity="0"/>
</linearGradient>
<linearGradient id="paint21_linear_59_3372" x1="1.67097" y1="10.0158" x2="2.81306" y2="10.0215" gradientUnits="userSpaceOnUse">
<stop stop-color="#63B33B"/>
<stop offset="1" stop-color="#429B5B"/>
</linearGradient>
<linearGradient id="paint22_linear_59_3372" x1="2.26465" y1="15.9397" x2="12.2308" y2="15.9239" gradientUnits="userSpaceOnUse">
<stop stop-color="#2E7671"/>
<stop offset="1" stop-color="#2E7172"/>
</linearGradient>
<clipPath id="clip0_59_3372">
<rect width="23" height="23" fill="white"/>
</clipPath>
</defs>
</svg>
