<svg width="24" height="25" viewBox="0 0 24 25" fill="none" xmlns="http://www.w3.org/2000/svg">
<path d="M22.1304 19.685L13.5542 23.5625C13.0254 23.8119 12.4742 23.7875 11.9679 23.495L1.14166 17.9975C0.832283 17.7987 0.740408 17.5081 0.759158 17.3056C0.777908 17.1031 0.824783 16.8837 1.36853 16.7262L2.17103 16.43L13.031 22.3494L20.7485 19.1956L22.1304 19.685Z" fill="#01579B"/>
<path d="M13.4514 22.9419C13.237 23.0425 13.0016 23.0905 12.7649 23.0821C12.5282 23.0736 12.2969 23.0088 12.0902 22.8931L1.52081 17.5681C1.37081 17.4856 1.32581 17.2962 1.41581 17.15C1.64831 16.7656 2.07581 15.5506 1.37081 14.5419L13.3071 20.2887L13.4514 22.9419Z" fill="#F5F5F5"/>
<path d="M21.6732 19.2463L13.4513 22.9419C13.1794 23.06 12.6376 23.27 12.0132 22.85C12.5063 22.8856 12.8532 22.6813 13.0313 22.3494C13.2057 22.0269 13.1532 21.4981 12.9413 21.2C12.8119 21.02 12.4651 20.7331 12.3132 20.5719L21.2063 17.0938C21.9938 16.7694 22.7326 17.255 22.8507 17.8456C22.9819 18.5131 22.1307 19.0588 21.6732 19.2463Z" fill="#94C6D6"/>
<path d="M22.0838 16.805L13.5957 20.5925C13.0613 20.8044 12.4632 20.7763 11.9513 20.5175L1.1063 15.0088C1.0013 14.9563 0.845676 14.8119 0.783801 14.615C0.682551 14.2869 0.810051 13.8744 1.19443 13.7431L12.9469 19.7338L20.9944 16.2894L22.0838 16.805Z" fill="#01579B"/>
<path d="M22.7231 17.3544L21.7988 17.0187L19.8938 17.1294L13.5975 19.94C13.0631 20.1519 12.465 20.1237 11.9531 19.865L1.10626 14.3581C0.826881 14.2156 0.886881 13.8012 1.19438 13.7431L9.01126 10.2463C9.23438 10.205 9.46313 10.2294 9.67126 10.3175L20.8256 15.635C20.8256 15.635 22.5975 16.8481 22.7231 17.3544Z" fill="#0091EA"/>
<path d="M19.7871 17.1837C19.7871 17.1837 20.9608 16.7244 21.8833 16.7656C22.8058 16.8069 23.1265 17.4537 23.1265 17.4537C22.9521 16.6606 22.1327 16.2556 22.1327 16.2556L9.94521 10.1187C9.86084 10.0831 9.54959 10.01 9.07147 10.2069C8.68521 10.3662 7.42334 10.9569 7.42334 10.9569L19.7871 17.1837Z" fill="#616161"/>
<path d="M23.1788 17.6038C23.0907 17.2531 22.8732 16.8781 22.4719 16.6963C21.9432 16.4581 21.1894 16.52 20.7075 16.7713L19.7869 17.18V17.8288L20.9513 17.3113C22.0838 16.8069 22.5863 17.5625 22.6294 17.7406C22.8094 18.4663 22.4607 18.8863 21.4313 19.3588L19.7588 20.1125V20.765L21.6825 19.9081C22.5338 19.5669 23.505 18.9256 23.1788 17.6038Z" fill="#424242"/>
<path d="M6.1893 17.4331L2.95117 12.9575L3.4593 12.7306L7.10242 17.7369L6.1893 17.4331ZM10.3424 19.4956L9.76492 19.0381L19.7868 16.9925V17.3206L18.3824 17.8531L10.3424 19.4956Z" fill="#01579B"/>
<path d="M2.7749 9.15876L15.433 7.04376L20.9624 13.1319C21.2418 13.4263 21.0899 13.9138 20.6924 13.9944L7.62365 16.6756L2.7749 9.15876Z" fill="#9CCC65"/>
<path d="M20.6924 13.4694L7.71361 16.0981L7.67236 16.7169L20.6924 14.0469C21.0599 13.97 21.2136 13.55 21.013 13.2538C20.9417 13.3588 20.833 13.4413 20.6924 13.4694ZM21.3917 16.3063C21.5286 16.5238 21.4049 16.8106 21.1536 16.8613L9.20611 19.2838C8.48799 19.4319 7.78299 18.9613 7.71924 18.23C7.66486 17.6113 8.08299 17.0506 8.69236 16.9231L20.1824 14.3431L21.3917 16.3063Z" fill="#689F38"/>
<path d="M10.423 15.5187L5.66425 8.70874L2.94925 9.42687C2.32112 10.0512 2.5555 11.0769 2.5555 11.0769C2.5555 11.0769 6.71237 17.7481 7.36862 18.6012C8.02487 19.4544 8.983 19.3212 8.983 19.3212L10.6011 18.995L10.4324 15.9762L10.423 15.5187Z" fill="#616161"/>
<path d="M10.423 15.5637L8.13742 16.0362C7.51305 16.1769 7.40055 16.7637 7.40055 16.7637L1.88242 8.85687C1.88242 8.85687 1.0968 9.8075 1.61805 10.6156L7.36867 18.6012C7.9968 19.4956 8.98305 19.3287 8.98305 19.3287L10.6012 19.0025L10.4343 16.0437L10.423 15.5637Z" fill="#424242"/>
<path d="M20.6717 16.0625C20.7298 16.19 20.6548 16.3381 20.5179 16.3662L9.09355 18.71C8.37543 18.8581 7.8673 18.3819 7.89355 17.7331C7.9273 16.9137 8.38668 16.5669 8.99418 16.4412L20.4748 14.0956C20.4748 14.0956 20.0848 14.5344 20.3829 15.3556C20.4842 15.6387 20.5929 15.89 20.6717 16.0625Z" fill="#B9E4EA"/>
<path d="M8.47668 16.1937L3.58105 9.26749" stroke="#424242" stroke-width="1.2782" stroke-miterlimit="10"/>
<path d="M8.86131 13.2406L2.56506 10.0681L2.31006 10.5706L9.58506 14.2775L8.86131 13.2406Z" fill="#424242"/>
<path d="M20.3982 12.5056L19.937 11.9994L12.8438 15.2544L8.86133 13.2838L9.54008 14.255L12.1782 15.6031L14.1432 15.3013L20.3982 12.5056Z" fill="#689F38"/>
<path d="M22.1285 11.2531L13.5542 15.1306C13.0254 15.38 12.4742 15.3556 11.9679 15.0631L1.14166 9.56562C0.832283 9.36687 0.740408 9.07625 0.759158 8.87375C0.777908 8.67125 0.824783 8.45187 1.36853 8.29437L1.87666 8.10687L12.9992 13.565L22.031 9.82812L22.1285 11.2531Z" fill="#C62828"/>
<path d="M13.4495 14.51C13.235 14.6106 12.9997 14.6586 12.763 14.6502C12.5262 14.6417 12.2949 14.5769 12.0882 14.4612L1.51885 9.13624C1.36885 9.05374 1.32385 8.86436 1.41385 8.71811C1.64635 8.33374 2.07385 7.11874 1.36885 6.10999L13.0389 12.0462L13.4495 14.51Z" fill="#F5F5F5"/>
<path d="M21.6712 10.8144L13.4494 14.51C13.1775 14.6281 12.6356 14.8381 12.0112 14.4181C12.5044 14.4538 12.8512 14.2494 13.0294 13.9175C13.2037 13.595 13.1512 13.0663 12.9394 12.7681C12.81 12.5881 12.4631 12.3013 12.3112 12.14L21.2044 8.66188C21.9919 8.3375 22.7306 8.82313 22.8487 9.41375C22.98 10.0813 22.1287 10.6269 21.6712 10.8144Z" fill="#94C6D6"/>
<path d="M22.0839 8.37313L13.5958 12.1606C13.0614 12.3725 12.4633 12.3444 11.9514 12.0856L1.10452 6.57688C0.992022 6.52063 0.823272 6.37625 0.768897 6.17188C0.688272 5.86813 0.793272 5.46875 1.19265 5.31125L11.132 3.20563L22.0839 8.37313Z" fill="#C62828"/>
<path d="M22.721 8.92249L21.7967 8.58687L19.8917 8.69749L13.5954 11.5081C13.061 11.72 12.4629 11.6919 11.951 11.4331L1.10416 5.92437C0.824781 5.78187 0.924156 5.40499 1.19228 5.30937L9.01103 1.81437C9.23416 1.77312 9.4629 1.79749 9.67103 1.88562L20.8254 7.20312C20.8254 7.20312 22.5954 8.41437 22.721 8.92249Z" fill="#F44336"/>
<path d="M19.7867 8.75C19.7867 8.75 20.7636 8.40688 21.6861 8.44813C22.6086 8.48938 23.1279 9.02 23.1279 9.02C22.9386 8.1725 22.1342 7.82188 22.1342 7.82188L9.94668 1.685C9.8623 1.64938 9.55105 1.57625 9.07293 1.77313C8.68668 1.9325 7.4248 2.52313 7.4248 2.52313L19.7867 8.75Z" fill="#616161"/>
<path d="M20.9023 8.34875L8.43164 2.05812L8.84414 1.8725L21.5266 8.22875L20.9023 8.34875Z" fill="#424242"/>
<path d="M23.1768 9.17186C23.0887 8.82124 22.9406 8.48186 22.5225 8.30561C21.9881 8.08061 21.5006 8.03374 20.7056 8.33936L19.785 8.74811V9.39686L20.9493 8.87936C21.54 8.60186 22.41 8.66186 22.6275 9.30874C22.8656 10.0175 22.4587 10.4544 21.4293 10.9269L19.7568 11.6806V12.3331L21.6806 11.4762C22.5337 11.135 23.505 10.4937 23.1768 9.17186Z" fill="#424242"/>
</svg>
